<svg xmlns="http://www.w3.org/2000/svg" width="41.01" height="37.112" viewBox="0 0 41.01 37.112"><defs><style>.a{fill:#ff7d7d;}.b{fill:#fff;}</style></defs><g transform="translate(-12.497 -28.09)"><path class="a" d="M36.816,30.245a4.236,4.236,0,0,0-3.77-2.155,4.3,4.3,0,0,0-3.77,2.155L13.063,58.738a4.387,4.387,0,0,0,0,4.309A4.212,4.212,0,0,0,16.779,65.2H49.2a4.212,4.212,0,0,0,3.717-2.155,4.255,4.255,0,0,0,0-4.309Z" transform="translate(0 0)"/><rect class="b" width="4.309" height="10.773" transform="translate(31.107 41.717)"/><rect class="b" width="4.309" height="3.77" transform="translate(31.107 54.644)"/></g></svg>