<svg xmlns="http://www.w3.org/2000/svg" width="237.536" height="52.298" viewBox="0 0 237.536 52.298"><defs><style>.a{fill:#fff;}</style></defs><g transform="translate(0)"><path class="a" d="M28.569,106.955H11.708A11.7,11.7,0,0,1,0,95.246V84.708A11.7,11.7,0,0,1,11.708,73h2.108v3.044H11.943a8.909,8.909,0,0,0-8.9,8.9V95.012a8.909,8.909,0,0,0,8.9,8.9H28.334a8.909,8.909,0,0,0,8.9-8.9V84.943a8.893,8.893,0,0,0-5.433-8.2h5.354a11.669,11.669,0,0,1,3.124,7.962V95.247a11.7,11.7,0,0,1-11.708,11.708Z" transform="translate(6.089 -54.657)"/><path class="a" d="M148.734,41.689h-4.668a8.886,8.886,0,0,0,.453-2.81v-.47h4a2.11,2.11,0,0,0,2.108-2.107V31.387a2.11,2.11,0,0,0-2.108-2.107h-4v-.47a8.887,8.887,0,0,0-.453-2.81h4.668a4.917,4.917,0,0,1,4.917,4.917v5.854a4.917,4.917,0,0,1-4.917,4.917Z" transform="translate(-101.197 1.476)"/><path class="a" d="M9.586,41.689H4.918A4.918,4.918,0,0,1,0,36.772V30.917A4.917,4.917,0,0,1,4.918,26H9.586a8.886,8.886,0,0,0-.453,2.81v.47h-4A2.11,2.11,0,0,0,3.02,31.387V36.3a2.11,2.11,0,0,0,2.107,2.108h4v.47a8.887,8.887,0,0,0,.453,2.81Z" transform="translate(0 1.476)"/><g transform="translate(18.734)"><path class="a" d="M0,57.829a1.272,1.272,0,0,0,2.01,1.035L9,54.579a3.421,3.421,0,0,1,2-.64H26.374a4.914,4.914,0,0,0,4.908-4.908V32.9a1.272,1.272,0,0,0-1.272-1.272H4.908A4.914,4.914,0,0,0,0,36.534ZM2.543,36.534a2.368,2.368,0,0,1,2.365-2.365H28.739V49.032A2.368,2.368,0,0,1,26.374,51.4H11a5.949,5.949,0,0,0-3.474,1.112L2.544,55.36Z" transform="translate(0 -31.626)"/><path class="a" d="M94.134,115.882h14.691a1.272,1.272,0,0,0,0-2.543H94.134a1.272,1.272,0,1,0,0,2.543Z" transform="translate(-84.99 -106.412)"/><path class="a" d="M94.134,185.882h14.691a1.272,1.272,0,0,0,0-2.543H94.134a1.272,1.272,0,1,0,0,2.543Z" transform="translate(-84.99 -170.478)"/></g><path class="a" d="M1.654,0A1.654,1.654,0,0,1,3.308,1.654V4.962A1.654,1.654,0,0,1,0,4.962V1.654A1.654,1.654,0,0,1,1.654,0Z" transform="translate(16.894 30.481)"/><path class="a" d="M3.033,19.966V9.1A4.715,4.715,0,0,1,1.367,1.376a4.644,4.644,0,0,1,6.6,0,4.72,4.72,0,0,1,0,6.643A4.648,4.648,0,0,1,6.3,9.1V19.966Zm0-15.268A1.633,1.633,0,1,0,4.666,3.053,1.633,1.633,0,0,0,3.033,4.7Z" transform="translate(0.118 8.743)"/><path class="a" d="M1.654,0A1.654,1.654,0,0,1,3.308,1.654V4.962A1.654,1.654,0,0,1,0,4.962V1.654A1.654,1.654,0,0,1,1.654,0Z" transform="translate(32.252 30.481)"/><path class="a" d="M1.654,0A1.654,1.654,0,0,1,3.308,1.654V7.8A1.654,1.654,0,1,1,0,7.8V1.654A1.654,1.654,0,0,1,1.654,0Z" transform="translate(30.953 39.814) rotate(90)"/></g><path class="a" d="M28.384-9.725V-33.3H22.968l-7.1,18.064L8.791-33.3H3.375V-9.725H6.816V-29.636h.064L14.844-9.725h2.071l7.933-19.912h.1V-9.725Zm6.913-9.94a5.766,5.766,0,0,1,5.671-5.161A5.761,5.761,0,0,1,46.7-19.665ZM49.92-17.116a10.012,10.012,0,0,0,.1-1.657,8.99,8.99,0,0,0-9.143-9.08,9.112,9.112,0,0,0-8.889,9.462,9.252,9.252,0,0,0,8.984,9.112,9.044,9.044,0,0,0,8.474-5.989H46.129A5.685,5.685,0,0,1,41.1-12.305a6.061,6.061,0,0,1-5.8-4.811Zm6.786,7.391V-19.919h8.474v-3.154H56.706v-7.073h8.474V-33.3H53.265V-9.725Zm27.621,0V-20.3c0-4.874-3.122-7.55-7.359-7.55a6.176,6.176,0,0,0-5.161,2.358h-.064v-1.88h-3.09v17.65h3.313v-9.653c0-3.313,1.752-5.448,4.651-5.448,2.931,0,4.4,1.752,4.4,5.48v9.621Zm26.283,0v-3.154H101.34v-7.168h9.271V-23.2H101.34v-6.945h9.271V-33.3H97.9V-9.725Zm11.533,0,6.945-17.65h-3.536l-4.524,12.616h-.064l-4.619-12.616h-3.536l7.009,17.65Zm17.267-2.581a6.2,6.2,0,0,1-6.021-6.212,6.185,6.185,0,0,1,6.021-6.308,6.089,6.089,0,0,1,6.149,6.308A6.207,6.207,0,0,1,139.411-12.305Zm9.4,2.581v-17.65H145.5v2.485h-.064a7.031,7.031,0,0,0-6.117-2.963c-5.193,0-9.239,3.95-9.239,9.589a9.1,9.1,0,0,0,9.366,8.984,6.708,6.708,0,0,0,5.989-3.186h.064v2.74Zm19.912,0V-20.3c0-4.874-3.122-7.55-7.359-7.55a6.176,6.176,0,0,0-5.161,2.358h-.064v-1.88h-3.09v17.65h3.313v-9.653c0-3.313,1.752-5.448,4.651-5.448,2.931,0,4.4,1.752,4.4,5.48v9.621Z" transform="translate(68.815 50.247)"/></svg>