<svg xmlns="http://www.w3.org/2000/svg" width="16.561" height="11.465" viewBox="0 0 16.561 11.465"><defs><style>.a{fill:#bdc3c8;}</style></defs><path class="a" d="M18.924,13a.637.637,0,0,0-.637.637v5.1a.637.637,0,0,1-.637.637H4.911a.637.637,0,0,1-.637-.637v-5.1a.637.637,0,1,0-1.274,0v5.1a1.914,1.914,0,0,0,1.911,1.911H17.65a1.914,1.914,0,0,0,1.911-1.911v-5.1A.637.637,0,0,0,18.924,13Z" transform="translate(-3 -9.178)"/><path class="a" d="M10.968,14.516a.637.637,0,0,0,.764,0l7.522-5.643a.637.637,0,0,0,.191-.783,1.949,1.949,0,0,0-.376-.529A1.911,1.911,0,0,0,17.72,7H4.981a1.911,1.911,0,0,0-1.35.561,1.949,1.949,0,0,0-.376.529.637.637,0,0,0,.191.783ZM4.981,8.274H17.72a.573.573,0,0,1,.178,0L11.35,13.21,4.8,8.274A.573.573,0,0,1,4.981,8.274Z" transform="translate(-3.07 -7)"/></svg>