<svg xmlns="http://www.w3.org/2000/svg" width="20.565" height="20.565" viewBox="0 0 20.565 20.565"><path d="M17.995,20.565H2.571A2.569,2.569,0,0,1,0,17.995V2.571A2.569,2.569,0,0,1,2.571,0H17.995a2.569,2.569,0,0,1,2.571,2.571V17.995a2.569,2.569,0,0,1-2.571,2.571ZM6.111,8.131v2.856H8.577v7.329h2.949V10.987h2.46l.368-2.856H11.527V6.308a2.477,2.477,0,0,1,.054-.566A1.034,1.034,0,0,1,11.79,5.3a.955.955,0,0,1,.431-.284,2.191,2.191,0,0,1,.721-.1h1.512V2.362a20.129,20.129,0,0,0-2.2-.113A3.456,3.456,0,0,0,8.577,6.025V8.131Z" transform="translate(0 0)"/></svg>