<svg xmlns="http://www.w3.org/2000/svg" width="14.668" height="9.43" viewBox="0 0 14.668 9.43"><g transform="translate(-2 -7)"><g transform="translate(2 7)"><path d="M9.334,16.43a8.113,8.113,0,0,1-5.955-2.665.524.524,0,0,1,.766-.715,7.075,7.075,0,0,0,5.189,2.333,7.3,7.3,0,0,0,6.2-3.667,7.3,7.3,0,0,0-6.2-3.667A7.345,7.345,0,0,0,2.98,11.973a.524.524,0,1,1-.912-.517A8.379,8.379,0,0,1,9.334,7,8.378,8.378,0,0,1,16.6,11.457a.524.524,0,0,1,0,.516A8.379,8.379,0,0,1,9.334,16.43Z" transform="translate(-2 -7)"/></g><g transform="translate(6.715 9.095)"><path d="M13.619,16.239a2.619,2.619,0,1,1,2.619-2.619A2.622,2.622,0,0,1,13.619,16.239Zm0-4.191a1.572,1.572,0,1,0,1.572,1.572A1.574,1.574,0,0,0,13.619,12.048Z" transform="translate(-11 -11)"/></g></g></svg>