<svg xmlns="http://www.w3.org/2000/svg" width="61.427" height="61.245" viewBox="0 0 61.427 61.245"><defs><style>.a{fill:#057ed9;}</style></defs><g transform="translate(52.328 -41.675)"><g transform="translate(-52.328 41.675)"><path class="a" d="M33.456,112.763H13.711A13.7,13.7,0,0,1,0,99.051V86.71A13.7,13.7,0,0,1,13.711,73h2.468v3.565H13.986A10.433,10.433,0,0,0,3.565,86.986V98.777A10.433,10.433,0,0,0,13.986,109.2h19.2A10.433,10.433,0,0,0,43.6,98.777V86.986a10.415,10.415,0,0,0-6.362-9.6h6.269a13.665,13.665,0,0,1,3.658,9.324V99.052a13.7,13.7,0,0,1-13.711,13.711Z" transform="translate(7.13 -51.519)"/><path class="a" d="M149.532,44.373h-5.466a10.406,10.406,0,0,0,.53-3.291v-.55h4.69a2.471,2.471,0,0,0,2.469-2.468V32.309a2.471,2.471,0,0,0-2.468-2.468H144.6v-.55a10.407,10.407,0,0,0-.53-3.291h5.466a5.759,5.759,0,0,1,5.759,5.759v6.856a5.759,5.759,0,0,1-5.758,5.758Z" transform="translate(-93.864 6.176)"/><path class="a" d="M11.225,44.373H5.759A5.759,5.759,0,0,1,0,38.614V31.759A5.759,5.759,0,0,1,5.759,26h5.466a10.406,10.406,0,0,0-.531,3.291v.55H6a2.471,2.471,0,0,0-2.468,2.468v5.755A2.471,2.471,0,0,0,6,40.532h4.69v.55a10.407,10.407,0,0,0,.531,3.29Z" transform="translate(0 6.176)"/><g transform="translate(21.939)"><path class="a" d="M0,62.311a1.49,1.49,0,0,0,2.354,1.212l8.187-5.018a4.006,4.006,0,0,1,2.34-.749H30.886a5.754,5.754,0,0,0,5.748-5.748V33.115a1.489,1.489,0,0,0-1.489-1.489H5.748A5.754,5.754,0,0,0,0,37.374ZM2.978,37.374a2.773,2.773,0,0,1,2.77-2.77H33.655V52.009a2.773,2.773,0,0,1-2.77,2.77H12.88a6.967,6.967,0,0,0-4.068,1.3L2.979,59.42Z" transform="translate(0 -31.626)"/><path class="a" d="M94.351,116.317h17.2a1.489,1.489,0,0,0,0-2.978h-17.2a1.489,1.489,0,1,0,0,2.978Z" transform="translate(-83.644 -105.227)"/><path class="a" d="M94.351,186.317h17.2a1.489,1.489,0,0,0,0-2.978h-17.2a1.489,1.489,0,1,0,0,2.978Z" transform="translate(-83.644 -168.279)"/></g><path class="a" d="M1.937,0A1.937,1.937,0,0,1,3.874,1.937V5.811A1.937,1.937,0,1,1,0,5.811V1.937A1.937,1.937,0,0,1,1.937,0Z" transform="translate(19.784 35.695)"/><path class="a" d="M3.552,23.381V10.658A5.522,5.522,0,0,1,1.6,1.611a5.439,5.439,0,0,1,7.728,0,5.527,5.527,0,0,1,0,7.78,5.443,5.443,0,0,1-1.951,1.267V23.381Zm0-17.88A1.913,1.913,0,1,0,5.465,3.576,1.913,1.913,0,0,0,3.552,5.5Z" transform="translate(0.139 10.239)"/><path class="a" d="M1.937,0A1.937,1.937,0,0,1,3.874,1.937V5.811A1.937,1.937,0,1,1,0,5.811V1.937A1.937,1.937,0,0,1,1.937,0Z" transform="translate(37.769 35.695)"/><path class="a" d="M1.937,0A1.937,1.937,0,0,1,3.874,1.937V9.131A1.937,1.937,0,1,1,0,9.131V1.937A1.937,1.937,0,0,1,1.937,0Z" transform="translate(36.248 46.625) rotate(90)"/></g></g></svg>