<svg xmlns="http://www.w3.org/2000/svg" width="16.202" height="18.695" viewBox="0 0 16.202 18.695"><defs><style>.a{fill:#fff;}</style></defs><g transform="translate(0)"><path class="a" d="M16.84,22.333H6.87A1.87,1.87,0,0,1,5,20.463V8.623a.623.623,0,0,1,1.246,0v11.84a.623.623,0,0,0,.623.623H16.84a.623.623,0,0,0,.623-.623V8.623a.623.623,0,0,1,1.246,0v11.84A1.87,1.87,0,0,1,16.84,22.333Z" transform="translate(-3.754 -3.638)"/><path class="a" d="M18.579,6.246H3.623A.623.623,0,1,1,3.623,5H18.579a.623.623,0,1,1,0,1.246Z" transform="translate(-3 -2.507)"/><path class="a" d="M16.609,4.739a.623.623,0,0,1-.623-.623V2.246H12.246v1.87a.623.623,0,0,1-1.246,0V1.623A.623.623,0,0,1,11.623,1h4.985a.623.623,0,0,1,.623.623V4.116A.623.623,0,0,1,16.609,4.739Z" transform="translate(-6.015 -1)"/><path class="a" d="M15.623,19.971A.623.623,0,0,1,15,19.348V10.623a.623.623,0,0,1,1.246,0v8.724A.623.623,0,0,1,15.623,19.971Z" transform="translate(-7.522 -4.391)"/><path class="a" d="M20.623,19.478A.623.623,0,0,1,20,18.855V12.623a.623.623,0,1,1,1.246,0v6.232A.623.623,0,0,1,20.623,19.478Z" transform="translate(-9.406 -5.145)"/><path class="a" d="M10.623,19.478A.623.623,0,0,1,10,18.855V12.623a.623.623,0,0,1,1.246,0v6.232A.623.623,0,0,1,10.623,19.478Z" transform="translate(-5.638 -5.145)"/></g></svg>