<svg xmlns="http://www.w3.org/2000/svg" width="147.689" height="32.804" viewBox="0 0 147.689 32.804"><defs><style>.a{fill:#057ed9;}</style></defs><g transform="translate(52.328 -41.675)"><g transform="translate(-52.328 41.675)"><path class="a" d="M17.919,94.3H7.344A7.338,7.338,0,0,1,0,86.953v-6.61A7.338,7.338,0,0,1,7.344,73H8.666v1.909H7.491a5.588,5.588,0,0,0-5.582,5.582v6.316a5.588,5.588,0,0,0,5.582,5.582H17.772a5.588,5.588,0,0,0,5.582-5.582V80.491a5.578,5.578,0,0,0-3.408-5.141H23.3a7.319,7.319,0,0,1,1.959,4.994v6.61A7.338,7.338,0,0,1,17.92,94.3Z" transform="translate(3.819 -61.494)"/><path class="a" d="M146.994,35.841h-2.928a5.573,5.573,0,0,0,.284-1.763v-.295h2.512a1.323,1.323,0,0,0,1.322-1.322V29.379a1.323,1.323,0,0,0-1.322-1.322H144.35v-.295A5.574,5.574,0,0,0,144.066,26h2.928a3.084,3.084,0,0,1,3.084,3.084v3.672a3.084,3.084,0,0,1-3.084,3.084Z" transform="translate(-117.177 -8.766)"/><path class="a" d="M6.012,35.841H3.085A3.084,3.084,0,0,1,0,32.756V29.084A3.084,3.084,0,0,1,3.085,26H6.012a5.574,5.574,0,0,0-.284,1.763v.295H3.216a1.323,1.323,0,0,0-1.322,1.322v3.083a1.323,1.323,0,0,0,1.322,1.322H5.728v.295a5.574,5.574,0,0,0,.284,1.762Z" transform="translate(0 -8.766)"/><g transform="translate(11.751)"><path class="a" d="M0,48.062a.8.8,0,0,0,1.261.649l4.385-2.687a2.145,2.145,0,0,1,1.253-.4h9.644a3.082,3.082,0,0,0,3.079-3.079V32.424a.8.8,0,0,0-.8-.8H3.079A3.082,3.082,0,0,0,0,34.7ZM1.6,34.7a1.485,1.485,0,0,1,1.484-1.484H18.026v9.322a1.485,1.485,0,0,1-1.484,1.484H6.9a3.732,3.732,0,0,0-2.179.7L1.6,46.513Z" transform="translate(0 -31.626)"/><path class="a" d="M93.66,114.934h9.215a.8.8,0,0,0,0-1.6H93.66a.8.8,0,1,0,0,1.6Z" transform="translate(-87.924 -108.994)"/><path class="a" d="M93.66,184.934h9.215a.8.8,0,0,0,0-1.6H93.66a.8.8,0,1,0,0,1.6Z" transform="translate(-87.924 -175.272)"/></g><path class="a" d="M1.037,0A1.037,1.037,0,0,1,2.075,1.037V3.112A1.037,1.037,0,0,1,0,3.112V1.037A1.037,1.037,0,0,1,1.037,0Z" transform="translate(10.597 19.119)"/><path class="a" d="M1.9,12.523V5.709A2.958,2.958,0,0,1,.857.863,2.913,2.913,0,0,1,5,.863,2.96,2.96,0,0,1,5,5.03a2.915,2.915,0,0,1-1.045.678v6.815Zm0-9.577A1.025,1.025,0,1,0,2.927,1.915,1.025,1.025,0,0,0,1.9,2.947Z" transform="translate(0.074 5.484)"/><path class="a" d="M1.037,0A1.037,1.037,0,0,1,2.075,1.037V3.112A1.037,1.037,0,0,1,0,3.112V1.037A1.037,1.037,0,0,1,1.037,0Z" transform="translate(20.23 19.119)"/><path class="a" d="M1.037,0A1.037,1.037,0,0,1,2.075,1.037V4.891A1.037,1.037,0,1,1,0,4.891V1.037A1.037,1.037,0,0,1,1.037,0Z" transform="translate(19.415 24.973) rotate(90)"/></g><path d="M18.543-19V-33.3H15.259L10.95-22.344,6.66-33.3H3.375V-19H5.462V-31.078H5.5L10.331-19h1.256L16.4-31.078h.058V-19Zm4.193-6.029a3.5,3.5,0,0,1,3.439-3.13,3.494,3.494,0,0,1,3.478,3.13Zm8.869,1.546a6.073,6.073,0,0,0,.058-1A5.453,5.453,0,0,0,26.118-30a5.527,5.527,0,0,0-5.391,5.739,5.612,5.612,0,0,0,5.449,5.526,5.486,5.486,0,0,0,5.14-3.633h-2.01a3.448,3.448,0,0,1-3.053,1.8,3.676,3.676,0,0,1-3.517-2.918ZM35.721-19v-6.183h5.14V-27.1h-5.14v-4.29h5.14V-33.3H33.635V-19Zm16.753,0v-6.415A4.221,4.221,0,0,0,48.011-30a3.746,3.746,0,0,0-3.13,1.43h-.039v-1.14H42.967V-19h2.01v-5.855c0-2.01,1.063-3.3,2.821-3.3,1.778,0,2.667,1.063,2.667,3.324V-19Zm15.941,0v-1.913H62.793v-4.348h5.623v-1.913H62.793v-4.212h5.623V-33.3h-7.71V-19Zm6.995,0,4.212-10.7H77.478l-2.744,7.652H74.7l-2.8-7.652H69.749L74-19Zm10.473-1.565a3.763,3.763,0,0,1-3.652-3.768,3.751,3.751,0,0,1,3.652-3.826,3.693,3.693,0,0,1,3.729,3.826A3.765,3.765,0,0,1,85.883-20.566ZM91.584-19v-10.7h-2.01V-28.2h-.039a4.265,4.265,0,0,0-3.71-1.8,5.553,5.553,0,0,0-5.6,5.816A5.521,5.521,0,0,0,85.9-18.731a4.069,4.069,0,0,0,3.633-1.932h.039V-19Zm12.077,0v-6.415A4.221,4.221,0,0,0,99.2-30a3.746,3.746,0,0,0-3.13,1.43h-.039v-1.14H94.154V-19h2.01v-5.855c0-2.01,1.063-3.3,2.821-3.3,1.778,0,2.667,1.063,2.667,3.324V-19Z" transform="translate(-8.3 84.583)"/></g></svg>