<svg xmlns="http://www.w3.org/2000/svg" width="16.733" height="16.733" viewBox="0 0 16.733 16.733"><defs><style>.a{fill:#057ed9;}</style></defs><path class="a" d="M14.641,16.733H2.092A2.09,2.09,0,0,1,0,14.641V2.092A2.09,2.09,0,0,1,2.092,0h12.55a2.09,2.09,0,0,1,2.092,2.092v12.55a2.09,2.09,0,0,1-2.092,2.092ZM4.972,6.616V8.94H6.979V14.9h2.4V8.94h2l.3-2.324h-2.3V5.132a2.016,2.016,0,0,1,.044-.461.842.842,0,0,1,.17-.357.777.777,0,0,1,.351-.231A1.782,1.782,0,0,1,10.53,4h1.231V1.922A16.378,16.378,0,0,0,9.968,1.83,2.812,2.812,0,0,0,6.979,4.9V6.616Z"/></svg>