<svg xmlns="http://www.w3.org/2000/svg" width="17.074" height="18" viewBox="0 0 17.074 18"><g transform="translate(-3 -3)"><path d="M18.1,3H4.97A1.97,1.97,0,0,0,3,4.97V21l3.362-3.362a.69.69,0,0,1,.466-.19H18.1a1.97,1.97,0,0,0,1.97-1.97V4.97A1.97,1.97,0,0,0,18.1,3Zm.657,12.477a.657.657,0,0,1-.657.657H6.829a1.97,1.97,0,0,0-1.392.578L4.313,17.835V4.97a.657.657,0,0,1,.657-.657H18.1a.657.657,0,0,1,.657.657Z" transform="translate(0 0)"/><rect width="8" height="1" transform="translate(7.537 7.436)"/><rect width="5" height="1" transform="translate(7.603 11.302)"/></g></svg>