<svg xmlns="http://www.w3.org/2000/svg" width="16.75" height="13" viewBox="0 0 16.75 13"><defs><style>.a{fill:#057ed9;}</style></defs><g transform="translate(-5.75 -6)"><g transform="translate(5.75 6)"><path class="a" d="M9,9a3,3,0,0,1,6,0A3,3,0,0,1,9,9Zm3,5c-4.6,0-6,3.3-6,3.3V19H18V17.3S16.6,14,12,14Z" transform="translate(-6 -6)"/></g><g transform="translate(15.2 6)"><g transform="translate(0.3)"><circle class="a" cx="2.5" cy="2.5" r="2.5"/></g><g transform="translate(0 7)"><path class="a" d="M18.5,13a4.655,4.655,0,0,0-2.8.8A6.17,6.17,0,0,1,18.9,17v.1H23V15.8A4.653,4.653,0,0,0,18.5,13Z" transform="translate(-15.7 -13)"/></g></g><g transform="translate(15.2 6)"><g transform="translate(0.3)"><circle class="a" cx="2.5" cy="2.5" r="2.5"/></g><g transform="translate(0 7)"><path class="a" d="M18.5,13a4.655,4.655,0,0,0-2.8.8A6.17,6.17,0,0,1,18.9,17v.1H23V15.8A4.653,4.653,0,0,0,18.5,13Z" transform="translate(-15.7 -13)"/></g></g></g></svg>