<svg xmlns="http://www.w3.org/2000/svg" width="15.584" height="16.685" viewBox="0 0 15.584 16.685"><defs><style>.a{fill:#057ed9;}</style></defs><g transform="translate(-0.792)"><path class="a" d="M15.675,10.011l-.834-.487a1.431,1.431,0,0,1,0-2.433l.834-.487a1.321,1.321,0,0,0,.487-1.877l-.7-1.182a1.321,1.321,0,0,0-1.877-.487l-.834.487A1.387,1.387,0,0,1,10.67,2.364V1.39A1.4,1.4,0,0,0,9.279,0H7.889A1.4,1.4,0,0,0,6.5,1.39v.9A1.387,1.387,0,0,1,4.413,3.476l-.834-.417A1.348,1.348,0,0,0,1.7,3.546l-.7,1.182a1.516,1.516,0,0,0,.487,1.947l.834.487a1.369,1.369,0,0,1,0,2.364l-.834.487a1.321,1.321,0,0,0-.487,1.877l.7,1.182a1.321,1.321,0,0,0,1.877.487l.834-.417A1.387,1.387,0,0,1,6.5,14.322v.973a1.4,1.4,0,0,0,1.39,1.39h1.39a1.4,1.4,0,0,0,1.39-1.39v-.9a1.387,1.387,0,0,1,2.086-1.182l.834.487a1.348,1.348,0,0,0,1.877-.487l.7-1.182A1.586,1.586,0,0,0,15.675,10.011ZM8.584,11.124a2.781,2.781,0,1,1,2.781-2.781A2.789,2.789,0,0,1,8.584,11.124Z" transform="translate(0)"/></g></svg>