<svg xmlns="http://www.w3.org/2000/svg" width="18.583" height="18.069" viewBox="0 0 18.583 18.069"><defs><style>.a{fill:#adb5bc;}</style></defs><g transform="translate(-54.13 -51.75)"><path class="a" d="M68.894,69.819a.687.687,0,0,1-.517-.235l-2.22-2.537a10.9,10.9,0,0,1-2.735.344A10.2,10.2,0,0,1,56.9,65.144,6.993,6.993,0,0,1,56.9,54a10.589,10.589,0,0,1,13.046,0,7.209,7.209,0,0,1,2.769,5.573,7.322,7.322,0,0,1-3.132,5.859v3.7A.687.687,0,0,1,68.894,69.819Zm-2.506-4.237a.687.687,0,0,1,.517.235l1.3,1.488V65.075a.687.687,0,0,1,.3-.567,6.039,6.039,0,0,0,2.833-4.938c0-3.555-3.552-6.447-7.917-6.447S55.5,56.016,55.5,59.571s3.552,6.447,7.918,6.447a9.477,9.477,0,0,0,2.766-.406.7.7,0,0,1,.2-.03Z" transform="translate(0)"/><path class="a" d="M185.657,150.944h-5.75a.687.687,0,0,1,0-1.374h5.75a.687.687,0,1,1,0,1.374Z" transform="translate(-119.361 -94.256)"/><path class="a" d="M183.175,207.544h-3.533c-.233,0-.422-.308-.422-.687s.189-.687.422-.687h3.533c.233,0,.422.308.422.687S183.408,207.544,183.175,207.544Z" transform="translate(-119.361 -148.767)"/><path class="a" d="M8.669,8.052H3.744L4.929,6.867a.486.486,0,0,0,.149-.354A.519.519,0,0,0,4.565,6a.484.484,0,0,0-.354.149L2.17,8.19A.492.492,0,0,0,2,8.565a.465.465,0,0,0,.166.371l2.045,2.045a.484.484,0,0,0,.354.149.519.519,0,0,0,.513-.513.486.486,0,0,0-.149-.354L3.744,9.078H8.669a.513.513,0,1,0,0-1.026Z" transform="translate(57.859 53.464)"/></g></svg>