<svg xmlns="http://www.w3.org/2000/svg" width="11.675" height="15.82" viewBox="0 0 11.675 15.82"><defs><style>.a{fill:#bdc3c8;}</style></defs><g transform="translate(0 0)"><path class="a" d="M11.069,6.838h-.985V4.492a4.246,4.246,0,1,0-8.493,0V6.838H.617A.611.611,0,0,0,0,7.444v7.09a1.534,1.534,0,0,0,1.534,1.527h8.618a1.525,1.525,0,0,0,1.523-1.527V7.444A.6.6,0,0,0,11.069,6.838ZM2.812,4.494a3.025,3.025,0,1,1,6.05,0V6.838H2.812Zm7.641,10.04a.3.3,0,0,1-.3.306H1.534a.313.313,0,0,1-.313-.306V8.059h9.233Z" transform="translate(0 -0.242)"/><path class="a" d="M565.611,1043.138a.611.611,0,0,0,.611-.611v-2.2a.611.611,0,1,0-1.221,0v2.2A.611.611,0,0,0,565.611,1043.138Z" transform="translate(-559.773 -1030.099)"/></g></svg>