<svg xmlns="http://www.w3.org/2000/svg" width="10.778" height="12.436" viewBox="0 0 10.778 12.436"><defs><style>.a{fill:#ff1a1a;}</style></defs><g transform="translate(-3 -1)"><path class="a" d="M12.876,17.534H6.244A1.244,1.244,0,0,1,5,16.291V8.415a.415.415,0,0,1,.829,0v7.876a.415.415,0,0,0,.415.415h6.632a.415.415,0,0,0,.415-.415V8.415a.415.415,0,1,1,.829,0v7.876A1.244,1.244,0,0,1,12.876,17.534Z" transform="translate(-1.171 -4.098)"/><path class="a" d="M13.363,5.829H3.415a.415.415,0,0,1,0-.829h9.949a.415.415,0,1,1,0,.829Z" transform="translate(0 -2.342)"/><path class="a" d="M14.731,3.487a.415.415,0,0,1-.415-.415V1.829H11.829V3.073a.415.415,0,0,1-.829,0V1.415A.415.415,0,0,1,11.415,1h3.316a.415.415,0,0,1,.415.415V3.073A.415.415,0,0,1,14.731,3.487Z" transform="translate(-4.684)"/><path class="a" d="M15.415,16.632A.415.415,0,0,1,15,16.218v-5.8a.415.415,0,0,1,.829,0v5.8A.415.415,0,0,1,15.415,16.632Z" transform="translate(-7.026 -5.269)"/><path class="a" d="M20.415,16.974A.415.415,0,0,1,20,16.56V12.415a.415.415,0,1,1,.829,0V16.56A.415.415,0,0,1,20.415,16.974Z" transform="translate(-9.953 -6.44)"/><path class="a" d="M10.415,16.974A.415.415,0,0,1,10,16.56V12.415a.415.415,0,1,1,.829,0V16.56A.415.415,0,0,1,10.415,16.974Z" transform="translate(-4.098 -6.44)"/></g></svg>