<svg xmlns="http://www.w3.org/2000/svg" width="17.074" height="18" viewBox="0 0 17.074 18"><defs><style>.a{fill:#adb5bc;}</style></defs><g transform="translate(-1839 -351)"><g transform="translate(1839 351)"><path class="a" d="M18.1,8.91H16.791V4.97A1.97,1.97,0,0,0,14.821,3H4.97A1.97,1.97,0,0,0,3,4.97V17.06L6.362,13.7a.69.69,0,0,1,.466-.19H8.91v1.97a1.97,1.97,0,0,0,1.97,1.97h5.365a.69.69,0,0,1,.466.19L20.074,21V10.88A1.97,1.97,0,0,0,18.1,8.91ZM8.91,10.88v1.313H6.829a1.97,1.97,0,0,0-1.392.578L4.313,13.895V4.97a.657.657,0,0,1,.657-.657h9.85a.657.657,0,0,1,.657.657V8.91h-4.6a1.97,1.97,0,0,0-1.97,1.97Zm9.85,6.954-1.123-1.123a1.97,1.97,0,0,0-1.392-.578H10.88a.657.657,0,0,1-.657-.657v-4.6a.657.657,0,0,1,.657-.657H18.1a.657.657,0,0,1,.657.657Z" transform="translate(-3 -3)"/></g><rect class="a" width="8" height="1" transform="translate(1842.639 354.295)"/><rect class="a" width="4" height="1" transform="translate(1842.639 357.295)"/></g></svg>